<svg width="1024" height="1024" viewBox="0 0 1024 1024" fill="none" xmlns="http://www.w3.org/2000/svg">
<g clip-path="url(#clip0_6332_33326)">
<path fill-rule="evenodd" clip-rule="evenodd" d="M506.677 108.917C536.754 108.917 561.136 84.5351 561.136 54.4585C561.136 24.3819 536.754 0 506.677 0C476.601 0 452.219 24.3819 452.219 54.4585C452.219 84.5351 476.601 108.917 506.677 108.917ZM661.847 829.967C617.16 839.085 583.538 878.613 583.538 925.994C583.538 980.121 627.417 1024 681.545 1024C711.17 1024 737.726 1010.86 755.697 990.08C790.192 951.209 797.972 945.846 860.966 941.988C923.305 938.652 972.826 887.047 972.826 823.876C972.826 758.549 919.869 705.592 854.543 705.592C811.921 705.592 774.564 728.135 753.745 761.949C720.465 814.299 711.786 818.703 661.847 829.967ZM1012.74 277.122C1012.74 323.784 974.914 361.61 928.252 361.61C901.565 361.61 877.769 349.237 862.285 329.915L862.284 329.918C831.582 291.56 818.477 283.258 753.971 292.23C748.199 293.134 742.284 293.602 736.258 293.602C673.49 293.602 622.606 242.718 622.606 179.95C622.606 117.181 673.49 66.2973 736.258 66.2973C780.371 66.2973 818.615 91.4297 837.45 128.157C868.14 184.836 882.645 190.639 931.149 192.682C976.47 194.209 1012.74 231.43 1012.74 277.122ZM365.893 388.074C398.852 364.224 420.295 325.439 420.295 281.646C420.295 209.141 361.518 150.364 289.013 150.364C216.508 150.364 157.731 209.141 157.731 281.646C157.731 285.47 157.894 289.255 158.215 292.996C166.141 391.983 155.672 417.222 71.3081 476.968C35.319 501.727 11.7227 543.202 11.7227 590.188C11.7227 666.034 73.2075 727.518 149.053 727.518C224.898 727.518 286.383 666.034 286.383 590.188C286.383 584.738 286.066 579.362 285.448 574.077C274.866 471.584 286.858 446.917 365.893 388.074ZM513.693 873.705C513.693 956.089 446.908 1022.87 364.524 1022.87C282.14 1022.87 215.355 956.089 215.355 873.705C215.355 791.321 282.14 724.536 364.524 724.536C446.908 724.536 513.693 791.321 513.693 873.705Z" fill="url(#paint0_linear_6332_33326)"/>
</g>
<defs>
<linearGradient id="paint0_linear_6332_33326" x1="150.284" y1="211.302" x2="1160.42" y2="649.621" gradientUnits="userSpaceOnUse">
<stop stop-color="#3EECB8"/>
<stop offset="0.509323" stop-color="#A372FE"/>
<stop offset="1" stop-color="#FE7D4A"/>
</linearGradient>
<clipPath id="clip0_6332_33326">
<rect width="1024" height="1024" fill="white"/>
</clipPath>
</defs>
</svg>
