<?xml version="1.0" encoding="utf-8"?>
<!-- Generator: Adobe Illustrator 26.3.1, SVG Export Plug-In . SVG Version: 6.00 Build 0)  -->
<svg version="1.1" id="Layer_1" xmlns="http://www.w3.org/2000/svg" xmlns:xlink="http://www.w3.org/1999/xlink" x="0px" y="0px"
	 viewBox="0 0 281.5 284.7" style="enable-background:new 0 0 281.5 284.7;" xml:space="preserve">
<style type="text/css">
	.st0{fill:url(#SVGID_1_);}
</style>
<linearGradient id="SVGID_1_" gradientUnits="userSpaceOnUse" x1="239.7312" y1="15.7597" x2="42.7939" y2="267.8279">
	<stop  offset="0.1879" style="stop-color:#5D6B87"/>
	<stop  offset="0.2567" style="stop-color:#606D88"/>
	<stop  offset="0.3046" style="stop-color:#66728C"/>
	<stop  offset="0.346" style="stop-color:#727B93"/>
	<stop  offset="0.3839" style="stop-color:#82899F"/>
	<stop  offset="0.4192" style="stop-color:#999DAF"/>
	<stop  offset="0.4528" style="stop-color:#B7B9C6"/>
	<stop  offset="0.4843" style="stop-color:#DFDFE5"/>
	<stop  offset="0.5006" style="stop-color:#FFFFFF"/>
	<stop  offset="0.5219" style="stop-color:#D2D3DA"/>
	<stop  offset="0.5437" style="stop-color:#B8B9C4"/>
	<stop  offset="0.5578" style="stop-color:#AFB1BD"/>
	<stop  offset="0.5835" style="stop-color:#A1A4B3"/>
	<stop  offset="0.6415" style="stop-color:#888DA1"/>
	<stop  offset="0.7" style="stop-color:#767D95"/>
	<stop  offset="0.7585" style="stop-color:#68738D"/>
	<stop  offset="0.8171" style="stop-color:#606D88"/>
	<stop  offset="0.8758" style="stop-color:#5D6B87"/>
</linearGradient>
<path class="st0" d="M142.5,111.7c57.9,3.8,139.2,9.1,139.1,77.1c0,77.5-67.9,95.9-140.8,95.9c-72.7-0.2-130.1-10-140.4-92.5l0,0
	c6.1,3.5,14.7,8,18.9,10.2c44,23.4,133.1,12.1,133.1,12.1l-0.4,25.1l58.7-43.9l-57.7-43.9l-0.4,22.1c0,0-9-0.6-13.4-0.9
	C81.2,169.2-0.2,164,0,96.1C0,18.6,67.9,0,140.8,0c72.7,0.6,133,7.6,140.8,92.5l0,0c-55.7-42.1-157.1-25.3-157.1-25.3l0.4-25.1
	L66.1,85.9l57.7,43.9l-0.3-19.5C123.5,110.4,134.3,111.2,142.5,111.7z"/>
</svg>
